<svg width="501" height="496" viewBox="0 0 501 496" fill="none" xmlns="http://www.w3.org/2000/svg">
<path d="M357.56 109.247C381.585 139.532 390.428 178.582 397.314 224.519C404.123 270.456 408.896 323.201 384.871 361.703C360.847 400.205 308.102 424.387 260.6 419.144C213.098 413.822 170.839 379.154 135.389 340.652C99.9388 302.228 71.2186 259.969 75.3662 221.858C79.5138 183.747 116.529 149.862 151.979 119.577C187.508 89.2915 221.393 62.7625 257.939 60.18C294.485 57.5976 333.535 78.9616 357.56 109.247Z" fill="#FFDF53"/>
<path opacity="0.6" d="M274.033 78.5687C320.957 82.6194 368.681 98.6245 390.961 131.324C413.288 164.085 410.28 213.556 402.917 261.808C395.616 310.013 383.959 356.999 353.041 386.174C322.123 415.349 271.959 426.603 223.025 420.933C174.091 415.263 126.387 392.668 103.919 356.088C81.4515 319.508 84.314 269.068 93.6401 222.373C103.014 175.74 118.898 132.916 149.957 107.559C180.953 82.2498 227.172 74.4708 274.033 78.5687Z" fill="#FFDF53"/>
</svg>
