<svg width="124" height="114" viewBox="0 0 124 114" fill="none" xmlns="http://www.w3.org/2000/svg">
<path d="M113.614 34.6389C124.58 53.4429 125.516 78.2711 115.017 93.0978C104.49 107.954 82.5565 112.808 63.5479 111.112C44.5685 109.416 28.5135 101.111 16.3479 85.3189C4.21165 69.5271 -4.06442 46.2488 3.94845 29.141C11.9613 12.0333 36.2924 1.09597 58.9565 2.06103C81.6207 2.99684 102.647 15.835 113.614 34.6389Z" fill="#FFEEA3"/>
<path d="M41.9494 12.7673C62.1422 2.18395 83.6715 -4.19964 99.1575 3.19187C114.615 10.5834 124.028 31.778 123.098 51.4047C122.169 71.0594 110.954 89.1462 92.8818 100.877C74.8099 112.581 49.9393 117.928 30.6472 108.885C11.3841 99.8135 -2.27148 76.3791 0.314361 57.2563C2.9002 38.1616 21.7565 23.3506 41.9494 12.7673Z" fill="#FFDF53"/>
</svg>
